<svg xmlns="http://www.w3.org/2000/svg" xmlns:xlink="http://www.w3.org/1999/xlink" viewBox="0 0 157 196">
  <g id="Repeat_Grid_4" data-name="Repeat Grid 4" opacity="0.3" clip-path="url(#clip-path)">
    <g transform="translate(-229 -818)">
      <circle id="Ellipse_11" data-name="Ellipse 11" cx="6" cy="6" r="6" transform="translate(229 818)" fill="#6c748e"/>
    </g>
    <g transform="translate(-201 -818)">
      <circle id="Ellipse_11-2" data-name="Ellipse 11" cx="6" cy="6" r="6" transform="translate(229 818)" fill="#6c748e"/>
    </g>
    <g transform="translate(-173 -818)">
      <circle id="Ellipse_11-3" data-name="Ellipse 11" cx="6" cy="6" r="6" transform="translate(229 818)" fill="#6c748e"/>
    </g>
    <g transform="translate(-145 -818)">
      <circle id="Ellipse_11-4" data-name="Ellipse 11" cx="6" cy="6" r="6" transform="translate(229 818)" fill="#6c748e"/>
    </g>
    <g transform="translate(-117 -818)">
      <circle id="Ellipse_11-5" data-name="Ellipse 11" cx="6" cy="6" r="6" transform="translate(229 818)" fill="#6c748e"/>
    </g>
    <g transform="translate(-89 -818)">
      <circle id="Ellipse_11-6" data-name="Ellipse 11" cx="6" cy="6" r="6" transform="translate(229 818)" fill="#6c748e"/>
    </g>
    <g transform="translate(-229 -790)">
      <circle id="Ellipse_11-7" data-name="Ellipse 11" cx="6" cy="6" r="6" transform="translate(229 818)" fill="#6c748e"/>
    </g>
    <g transform="translate(-201 -790)">
      <circle id="Ellipse_11-8" data-name="Ellipse 11" cx="6" cy="6" r="6" transform="translate(229 818)" fill="#6c748e"/>
    </g>
    <g transform="translate(-173 -790)">
      <circle id="Ellipse_11-9" data-name="Ellipse 11" cx="6" cy="6" r="6" transform="translate(229 818)" fill="#6c748e"/>
    </g>
    <g transform="translate(-145 -790)">
      <circle id="Ellipse_11-10" data-name="Ellipse 11" cx="6" cy="6" r="6" transform="translate(229 818)" fill="#6c748e"/>
    </g>
    <g transform="translate(-117 -790)">
      <circle id="Ellipse_11-11" data-name="Ellipse 11" cx="6" cy="6" r="6" transform="translate(229 818)" fill="#6c748e"/>
    </g>
    <g transform="translate(-89 -790)">
      <circle id="Ellipse_11-12" data-name="Ellipse 11" cx="6" cy="6" r="6" transform="translate(229 818)" fill="#6c748e"/>
    </g>
    <g transform="translate(-229 -762)">
      <circle id="Ellipse_11-13" data-name="Ellipse 11" cx="6" cy="6" r="6" transform="translate(229 818)" fill="#6c748e"/>
    </g>
    <g transform="translate(-201 -762)">
      <circle id="Ellipse_11-14" data-name="Ellipse 11" cx="6" cy="6" r="6" transform="translate(229 818)" fill="#6c748e"/>
    </g>
    <g transform="translate(-173 -762)">
      <circle id="Ellipse_11-15" data-name="Ellipse 11" cx="6" cy="6" r="6" transform="translate(229 818)" fill="#6c748e"/>
    </g>
    <g transform="translate(-145 -762)">
      <circle id="Ellipse_11-16" data-name="Ellipse 11" cx="6" cy="6" r="6" transform="translate(229 818)" fill="#6c748e"/>
    </g>
    <g transform="translate(-117 -762)">
      <circle id="Ellipse_11-17" data-name="Ellipse 11" cx="6" cy="6" r="6" transform="translate(229 818)" fill="#6c748e"/>
    </g>
    <g transform="translate(-89 -762)">
      <circle id="Ellipse_11-18" data-name="Ellipse 11" cx="6" cy="6" r="6" transform="translate(229 818)" fill="#6c748e"/>
    </g>
    <g transform="translate(-229 -734)">
      <circle id="Ellipse_11-19" data-name="Ellipse 11" cx="6" cy="6" r="6" transform="translate(229 818)" fill="#6c748e"/>
    </g>
    <g transform="translate(-201 -734)">
      <circle id="Ellipse_11-20" data-name="Ellipse 11" cx="6" cy="6" r="6" transform="translate(229 818)" fill="#6c748e"/>
    </g>
    <g transform="translate(-173 -734)">
      <circle id="Ellipse_11-21" data-name="Ellipse 11" cx="6" cy="6" r="6" transform="translate(229 818)" fill="#6c748e"/>
    </g>
    <g transform="translate(-145 -734)">
      <circle id="Ellipse_11-22" data-name="Ellipse 11" cx="6" cy="6" r="6" transform="translate(229 818)" fill="#6c748e"/>
    </g>
    <g transform="translate(-117 -734)">
      <circle id="Ellipse_11-23" data-name="Ellipse 11" cx="6" cy="6" r="6" transform="translate(229 818)" fill="#6c748e"/>
    </g>
    <g transform="translate(-89 -734)">
      <circle id="Ellipse_11-24" data-name="Ellipse 11" cx="6" cy="6" r="6" transform="translate(229 818)" fill="#6c748e"/>
    </g>
    <g transform="translate(-229 -706)">
      <circle id="Ellipse_11-25" data-name="Ellipse 11" cx="6" cy="6" r="6" transform="translate(229 818)" fill="#6c748e"/>
    </g>
    <g transform="translate(-201 -706)">
      <circle id="Ellipse_11-26" data-name="Ellipse 11" cx="6" cy="6" r="6" transform="translate(229 818)" fill="#6c748e"/>
    </g>
    <g transform="translate(-173 -706)">
      <circle id="Ellipse_11-27" data-name="Ellipse 11" cx="6" cy="6" r="6" transform="translate(229 818)" fill="#6c748e"/>
    </g>
    <g transform="translate(-145 -706)">
      <circle id="Ellipse_11-28" data-name="Ellipse 11" cx="6" cy="6" r="6" transform="translate(229 818)" fill="#6c748e"/>
    </g>
    <g transform="translate(-117 -706)">
      <circle id="Ellipse_11-29" data-name="Ellipse 11" cx="6" cy="6" r="6" transform="translate(229 818)" fill="#6c748e"/>
    </g>
    <g transform="translate(-89 -706)">
      <circle id="Ellipse_11-30" data-name="Ellipse 11" cx="6" cy="6" r="6" transform="translate(229 818)" fill="#6c748e"/>
    </g>
    <g transform="translate(-229 -678)">
      <circle id="Ellipse_11-31" data-name="Ellipse 11" cx="6" cy="6" r="6" transform="translate(229 818)" fill="#6c748e"/>
    </g>
    <g transform="translate(-201 -678)">
      <circle id="Ellipse_11-32" data-name="Ellipse 11" cx="6" cy="6" r="6" transform="translate(229 818)" fill="#6c748e"/>
    </g>
    <g transform="translate(-173 -678)">
      <circle id="Ellipse_11-33" data-name="Ellipse 11" cx="6" cy="6" r="6" transform="translate(229 818)" fill="#6c748e"/>
    </g>
    <g transform="translate(-145 -678)">
      <circle id="Ellipse_11-34" data-name="Ellipse 11" cx="6" cy="6" r="6" transform="translate(229 818)" fill="#6c748e"/>
    </g>
    <g transform="translate(-117 -678)">
      <circle id="Ellipse_11-35" data-name="Ellipse 11" cx="6" cy="6" r="6" transform="translate(229 818)" fill="#6c748e"/>
    </g>
    <g transform="translate(-89 -678)">
      <circle id="Ellipse_11-36" data-name="Ellipse 11" cx="6" cy="6" r="6" transform="translate(229 818)" fill="#6c748e"/>
    </g>
    <g transform="translate(-229 -650)">
      <circle id="Ellipse_11-37" data-name="Ellipse 11" cx="6" cy="6" r="6" transform="translate(229 818)" fill="#6c748e"/>
    </g>
    <g transform="translate(-201 -650)">
      <circle id="Ellipse_11-38" data-name="Ellipse 11" cx="6" cy="6" r="6" transform="translate(229 818)" fill="#6c748e"/>
    </g>
    <g transform="translate(-173 -650)">
      <circle id="Ellipse_11-39" data-name="Ellipse 11" cx="6" cy="6" r="6" transform="translate(229 818)" fill="#6c748e"/>
    </g>
    <g transform="translate(-145 -650)">
      <circle id="Ellipse_11-40" data-name="Ellipse 11" cx="6" cy="6" r="6" transform="translate(229 818)" fill="#6c748e"/>
    </g>
    <g transform="translate(-117 -650)">
      <circle id="Ellipse_11-41" data-name="Ellipse 11" cx="6" cy="6" r="6" transform="translate(229 818)" fill="#6c748e"/>
    </g>
    <g transform="translate(-89 -650)">
      <circle id="Ellipse_11-42" data-name="Ellipse 11" cx="6" cy="6" r="6" transform="translate(229 818)" fill="#6c748e"/>
    </g>
  </g>
</svg>
